<mxfile host="app.diagrams.net" modified="2024-04-07T16:38:51.513Z" agent="Mozilla/5.0 (Windows NT 10.0; Win64; x64) AppleWebKit/537.36 (KHTML, like Gecko) Chrome/123.0.0.0 Safari/537.36" etag="HOaTTzsivnw0cuQnauXs" version="24.2.2" type="device">
  <diagram name="Pagina-1" id="w_eEv3NtSXeDfTLCQEwR">
    <mxGraphModel dx="1050" dy="572" grid="1" gridSize="10" guides="1" tooltips="1" connect="1" arrows="1" fold="1" page="1" pageScale="1" pageWidth="827" pageHeight="1169" math="0" shadow="0">
      <root>
        <mxCell id="0" />
        <mxCell id="1" parent="0" />
        <mxCell id="MbKlLmu9MP12zDya-M-E-1" value="&lt;span style=&quot;font-family: Söhne, ui-sans-serif, system-ui, -apple-system, &amp;quot;Segoe UI&amp;quot;, Roboto, Ubuntu, Cantarell, &amp;quot;Noto Sans&amp;quot;, sans-serif, &amp;quot;Helvetica Neue&amp;quot;, Arial, &amp;quot;Apple Color Emoji&amp;quot;, &amp;quot;Segoe UI Emoji&amp;quot;, &amp;quot;Segoe UI Symbol&amp;quot;, &amp;quot;Noto Color Emoji&amp;quot;; font-size: 16px; text-align: start; white-space-collapse: preserve;&quot;&gt;α&lt;sub&gt;1&lt;/sub&gt;&lt;/span&gt;" style="ellipse;whiteSpace=wrap;html=1;aspect=fixed;" vertex="1" parent="1">
          <mxGeometry x="420" y="319" width="50" height="50" as="geometry" />
        </mxCell>
        <mxCell id="MbKlLmu9MP12zDya-M-E-10" value="&lt;font style=&quot;font-size: 16px;&quot;&gt;Deel van bottom-up compilatie&lt;/font&gt;" style="rounded=0;whiteSpace=wrap;html=1;" vertex="1" parent="1">
          <mxGeometry x="401" y="410" width="319" height="60" as="geometry" />
        </mxCell>
        <mxCell id="MbKlLmu9MP12zDya-M-E-11" value="&lt;font style=&quot;font-size: 16px;&quot;&gt;Deel van rooted-DAG&lt;/font&gt;" style="rounded=0;whiteSpace=wrap;html=1;" vertex="1" parent="1">
          <mxGeometry x="60" y="410" width="310" height="60" as="geometry" />
        </mxCell>
        <mxCell id="MbKlLmu9MP12zDya-M-E-12" value="&lt;font style=&quot;font-size: 16px;&quot;&gt;n&lt;/font&gt;" style="ellipse;whiteSpace=wrap;html=1;aspect=fixed;" vertex="1" parent="1">
          <mxGeometry x="189" y="190" width="50" height="50" as="geometry" />
        </mxCell>
        <mxCell id="MbKlLmu9MP12zDya-M-E-13" value="&lt;font style=&quot;font-size: 16px;&quot;&gt;k&lt;sub&gt;2&lt;/sub&gt;&lt;/font&gt;" style="ellipse;whiteSpace=wrap;html=1;aspect=fixed;" vertex="1" parent="1">
          <mxGeometry x="129" y="320" width="50" height="50" as="geometry" />
        </mxCell>
        <mxCell id="MbKlLmu9MP12zDya-M-E-14" value="&lt;font style=&quot;font-size: 16px;&quot;&gt;k&lt;sub&gt;3&lt;/sub&gt;&lt;/font&gt;" style="ellipse;whiteSpace=wrap;html=1;aspect=fixed;" vertex="1" parent="1">
          <mxGeometry x="189" y="320" width="50" height="50" as="geometry" />
        </mxCell>
        <mxCell id="MbKlLmu9MP12zDya-M-E-18" value="&lt;font style=&quot;font-size: 16px;&quot;&gt;k&lt;sub&gt;1&lt;/sub&gt;&lt;/font&gt;" style="ellipse;whiteSpace=wrap;html=1;aspect=fixed;" vertex="1" parent="1">
          <mxGeometry x="69" y="320" width="50" height="50" as="geometry" />
        </mxCell>
        <mxCell id="MbKlLmu9MP12zDya-M-E-19" value="&lt;font style=&quot;font-size: 16px;&quot;&gt;k&lt;sub&gt;4&lt;/sub&gt;&lt;/font&gt;" style="ellipse;whiteSpace=wrap;html=1;aspect=fixed;" vertex="1" parent="1">
          <mxGeometry x="249" y="320" width="50" height="50" as="geometry" />
        </mxCell>
        <mxCell id="MbKlLmu9MP12zDya-M-E-20" value="&lt;font style=&quot;font-size: 16px;&quot;&gt;k&lt;sub&gt;5&lt;/sub&gt;&lt;/font&gt;" style="ellipse;whiteSpace=wrap;html=1;aspect=fixed;" vertex="1" parent="1">
          <mxGeometry x="309" y="320" width="50" height="50" as="geometry" />
        </mxCell>
        <mxCell id="MbKlLmu9MP12zDya-M-E-21" value="&lt;span style=&quot;font-family: Söhne, ui-sans-serif, system-ui, -apple-system, &amp;quot;Segoe UI&amp;quot;, Roboto, Ubuntu, Cantarell, &amp;quot;Noto Sans&amp;quot;, sans-serif, &amp;quot;Helvetica Neue&amp;quot;, Arial, &amp;quot;Apple Color Emoji&amp;quot;, &amp;quot;Segoe UI Emoji&amp;quot;, &amp;quot;Segoe UI Symbol&amp;quot;, &amp;quot;Noto Color Emoji&amp;quot;; font-size: 16px; text-align: start; white-space-collapse: preserve;&quot;&gt;α&lt;sub&gt;2&lt;/sub&gt;&lt;/span&gt;" style="ellipse;whiteSpace=wrap;html=1;aspect=fixed;" vertex="1" parent="1">
          <mxGeometry x="480" y="319" width="50" height="50" as="geometry" />
        </mxCell>
        <mxCell id="MbKlLmu9MP12zDya-M-E-22" value="&lt;span style=&quot;font-family: Söhne, ui-sans-serif, system-ui, -apple-system, &amp;quot;Segoe UI&amp;quot;, Roboto, Ubuntu, Cantarell, &amp;quot;Noto Sans&amp;quot;, sans-serif, &amp;quot;Helvetica Neue&amp;quot;, Arial, &amp;quot;Apple Color Emoji&amp;quot;, &amp;quot;Segoe UI Emoji&amp;quot;, &amp;quot;Segoe UI Symbol&amp;quot;, &amp;quot;Noto Color Emoji&amp;quot;; font-size: 16px; text-align: start; white-space-collapse: preserve;&quot;&gt;α&lt;sub&gt;3&lt;/sub&gt;&lt;/span&gt;" style="ellipse;whiteSpace=wrap;html=1;aspect=fixed;" vertex="1" parent="1">
          <mxGeometry x="540" y="319" width="50" height="50" as="geometry" />
        </mxCell>
        <mxCell id="MbKlLmu9MP12zDya-M-E-23" value="&lt;span style=&quot;font-family: Söhne, ui-sans-serif, system-ui, -apple-system, &amp;quot;Segoe UI&amp;quot;, Roboto, Ubuntu, Cantarell, &amp;quot;Noto Sans&amp;quot;, sans-serif, &amp;quot;Helvetica Neue&amp;quot;, Arial, &amp;quot;Apple Color Emoji&amp;quot;, &amp;quot;Segoe UI Emoji&amp;quot;, &amp;quot;Segoe UI Symbol&amp;quot;, &amp;quot;Noto Color Emoji&amp;quot;; font-size: 16px; text-align: start; white-space-collapse: preserve;&quot;&gt;α&lt;sub&gt;4&lt;/sub&gt;&lt;/span&gt;" style="ellipse;whiteSpace=wrap;html=1;aspect=fixed;" vertex="1" parent="1">
          <mxGeometry x="600" y="319" width="50" height="50" as="geometry" />
        </mxCell>
        <mxCell id="MbKlLmu9MP12zDya-M-E-24" value="&lt;span style=&quot;font-family: Söhne, ui-sans-serif, system-ui, -apple-system, &amp;quot;Segoe UI&amp;quot;, Roboto, Ubuntu, Cantarell, &amp;quot;Noto Sans&amp;quot;, sans-serif, &amp;quot;Helvetica Neue&amp;quot;, Arial, &amp;quot;Apple Color Emoji&amp;quot;, &amp;quot;Segoe UI Emoji&amp;quot;, &amp;quot;Segoe UI Symbol&amp;quot;, &amp;quot;Noto Color Emoji&amp;quot;; font-size: 16px; text-align: start; white-space-collapse: preserve;&quot;&gt;α&lt;sub&gt;5&lt;/sub&gt;&lt;/span&gt;" style="ellipse;whiteSpace=wrap;html=1;aspect=fixed;" vertex="1" parent="1">
          <mxGeometry x="660" y="319" width="50" height="50" as="geometry" />
        </mxCell>
        <mxCell id="MbKlLmu9MP12zDya-M-E-25" value="&lt;span style=&quot;font-family: Söhne, ui-sans-serif, system-ui, -apple-system, &amp;quot;Segoe UI&amp;quot;, Roboto, Ubuntu, Cantarell, &amp;quot;Noto Sans&amp;quot;, sans-serif, &amp;quot;Helvetica Neue&amp;quot;, Arial, &amp;quot;Apple Color Emoji&amp;quot;, &amp;quot;Segoe UI Emoji&amp;quot;, &amp;quot;Segoe UI Symbol&amp;quot;, &amp;quot;Noto Color Emoji&amp;quot;; font-size: 16px; text-align: start; white-space-collapse: preserve;&quot;&gt;α&lt;sub&gt;12&lt;/sub&gt;&lt;/span&gt;" style="ellipse;whiteSpace=wrap;html=1;aspect=fixed;" vertex="1" parent="1">
          <mxGeometry x="450" y="249" width="50" height="50" as="geometry" />
        </mxCell>
        <mxCell id="MbKlLmu9MP12zDya-M-E-26" value="&lt;span style=&quot;font-family: Söhne, ui-sans-serif, system-ui, -apple-system, &amp;quot;Segoe UI&amp;quot;, Roboto, Ubuntu, Cantarell, &amp;quot;Noto Sans&amp;quot;, sans-serif, &amp;quot;Helvetica Neue&amp;quot;, Arial, &amp;quot;Apple Color Emoji&amp;quot;, &amp;quot;Segoe UI Emoji&amp;quot;, &amp;quot;Segoe UI Symbol&amp;quot;, &amp;quot;Noto Color Emoji&amp;quot;; font-size: 16px; text-align: start; white-space-collapse: preserve;&quot;&gt;α&lt;sub&gt;45&lt;/sub&gt;&lt;/span&gt;" style="ellipse;whiteSpace=wrap;html=1;aspect=fixed;" vertex="1" parent="1">
          <mxGeometry x="630" y="249" width="50" height="50" as="geometry" />
        </mxCell>
        <mxCell id="MbKlLmu9MP12zDya-M-E-27" value="&lt;span style=&quot;font-family: Söhne, ui-sans-serif, system-ui, -apple-system, &amp;quot;Segoe UI&amp;quot;, Roboto, Ubuntu, Cantarell, &amp;quot;Noto Sans&amp;quot;, sans-serif, &amp;quot;Helvetica Neue&amp;quot;, Arial, &amp;quot;Apple Color Emoji&amp;quot;, &amp;quot;Segoe UI Emoji&amp;quot;, &amp;quot;Segoe UI Symbol&amp;quot;, &amp;quot;Noto Color Emoji&amp;quot;; font-size: 16px; text-align: start; white-space-collapse: preserve;&quot;&gt;α&lt;sub&gt;123&lt;/sub&gt;&lt;/span&gt;" style="ellipse;whiteSpace=wrap;html=1;aspect=fixed;" vertex="1" parent="1">
          <mxGeometry x="500" y="179" width="50" height="50" as="geometry" />
        </mxCell>
        <mxCell id="MbKlLmu9MP12zDya-M-E-28" value="&lt;span style=&quot;font-family: Söhne, ui-sans-serif, system-ui, -apple-system, &amp;quot;Segoe UI&amp;quot;, Roboto, Ubuntu, Cantarell, &amp;quot;Noto Sans&amp;quot;, sans-serif, &amp;quot;Helvetica Neue&amp;quot;, Arial, &amp;quot;Apple Color Emoji&amp;quot;, &amp;quot;Segoe UI Emoji&amp;quot;, &amp;quot;Segoe UI Symbol&amp;quot;, &amp;quot;Noto Color Emoji&amp;quot;; font-size: 16px; text-align: start; white-space-collapse: preserve;&quot;&gt;α&lt;/span&gt;" style="ellipse;whiteSpace=wrap;html=1;aspect=fixed;" vertex="1" parent="1">
          <mxGeometry x="540" y="109" width="50" height="50" as="geometry" />
        </mxCell>
        <mxCell id="MbKlLmu9MP12zDya-M-E-30" value="" style="endArrow=none;html=1;rounded=0;exitX=0.5;exitY=0;exitDx=0;exitDy=0;entryX=0.5;entryY=1;entryDx=0;entryDy=0;" edge="1" parent="1" source="MbKlLmu9MP12zDya-M-E-18" target="MbKlLmu9MP12zDya-M-E-12">
          <mxGeometry width="50" height="50" relative="1" as="geometry">
            <mxPoint x="159" y="290" as="sourcePoint" />
            <mxPoint x="209" y="240" as="targetPoint" />
          </mxGeometry>
        </mxCell>
        <mxCell id="MbKlLmu9MP12zDya-M-E-31" value="" style="endArrow=none;html=1;rounded=0;exitX=0.5;exitY=0;exitDx=0;exitDy=0;entryX=0.5;entryY=1;entryDx=0;entryDy=0;" edge="1" parent="1" source="MbKlLmu9MP12zDya-M-E-13" target="MbKlLmu9MP12zDya-M-E-12">
          <mxGeometry width="50" height="50" relative="1" as="geometry">
            <mxPoint x="104" y="330" as="sourcePoint" />
            <mxPoint x="224" y="250" as="targetPoint" />
          </mxGeometry>
        </mxCell>
        <mxCell id="MbKlLmu9MP12zDya-M-E-32" value="" style="endArrow=none;html=1;rounded=0;exitX=0.5;exitY=0;exitDx=0;exitDy=0;entryX=0.5;entryY=1;entryDx=0;entryDy=0;" edge="1" parent="1" source="MbKlLmu9MP12zDya-M-E-14" target="MbKlLmu9MP12zDya-M-E-12">
          <mxGeometry width="50" height="50" relative="1" as="geometry">
            <mxPoint x="114" y="340" as="sourcePoint" />
            <mxPoint x="234" y="260" as="targetPoint" />
          </mxGeometry>
        </mxCell>
        <mxCell id="MbKlLmu9MP12zDya-M-E-33" value="" style="endArrow=none;html=1;rounded=0;exitX=0.5;exitY=0;exitDx=0;exitDy=0;entryX=0.5;entryY=1;entryDx=0;entryDy=0;" edge="1" parent="1" source="MbKlLmu9MP12zDya-M-E-19" target="MbKlLmu9MP12zDya-M-E-12">
          <mxGeometry width="50" height="50" relative="1" as="geometry">
            <mxPoint x="124" y="350" as="sourcePoint" />
            <mxPoint x="244" y="270" as="targetPoint" />
          </mxGeometry>
        </mxCell>
        <mxCell id="MbKlLmu9MP12zDya-M-E-34" value="" style="endArrow=none;html=1;rounded=0;exitX=0.5;exitY=0;exitDx=0;exitDy=0;entryX=0.5;entryY=1;entryDx=0;entryDy=0;" edge="1" parent="1" source="MbKlLmu9MP12zDya-M-E-20" target="MbKlLmu9MP12zDya-M-E-12">
          <mxGeometry width="50" height="50" relative="1" as="geometry">
            <mxPoint x="134" y="360" as="sourcePoint" />
            <mxPoint x="254" y="280" as="targetPoint" />
          </mxGeometry>
        </mxCell>
        <mxCell id="MbKlLmu9MP12zDya-M-E-35" value="" style="endArrow=none;html=1;rounded=0;exitX=0.5;exitY=0;exitDx=0;exitDy=0;entryX=0.5;entryY=1;entryDx=0;entryDy=0;" edge="1" parent="1" source="MbKlLmu9MP12zDya-M-E-1" target="MbKlLmu9MP12zDya-M-E-25">
          <mxGeometry width="50" height="50" relative="1" as="geometry">
            <mxPoint x="105" y="309" as="sourcePoint" />
            <mxPoint x="165" y="229" as="targetPoint" />
          </mxGeometry>
        </mxCell>
        <mxCell id="MbKlLmu9MP12zDya-M-E-36" value="" style="endArrow=none;html=1;rounded=0;exitX=0.5;exitY=0;exitDx=0;exitDy=0;" edge="1" parent="1" source="MbKlLmu9MP12zDya-M-E-21">
          <mxGeometry width="50" height="50" relative="1" as="geometry">
            <mxPoint x="455" y="329" as="sourcePoint" />
            <mxPoint x="470" y="299" as="targetPoint" />
          </mxGeometry>
        </mxCell>
        <mxCell id="MbKlLmu9MP12zDya-M-E-37" value="" style="endArrow=none;html=1;rounded=0;exitX=0.5;exitY=0;exitDx=0;exitDy=0;entryX=0.5;entryY=1;entryDx=0;entryDy=0;" edge="1" parent="1" source="MbKlLmu9MP12zDya-M-E-23" target="MbKlLmu9MP12zDya-M-E-26">
          <mxGeometry width="50" height="50" relative="1" as="geometry">
            <mxPoint x="465" y="339" as="sourcePoint" />
            <mxPoint x="495" y="319" as="targetPoint" />
          </mxGeometry>
        </mxCell>
        <mxCell id="MbKlLmu9MP12zDya-M-E-38" value="" style="endArrow=none;html=1;rounded=0;exitX=0.5;exitY=0;exitDx=0;exitDy=0;entryX=0.5;entryY=1;entryDx=0;entryDy=0;" edge="1" parent="1" source="MbKlLmu9MP12zDya-M-E-24" target="MbKlLmu9MP12zDya-M-E-26">
          <mxGeometry width="50" height="50" relative="1" as="geometry">
            <mxPoint x="635" y="329" as="sourcePoint" />
            <mxPoint x="665" y="309" as="targetPoint" />
          </mxGeometry>
        </mxCell>
        <mxCell id="MbKlLmu9MP12zDya-M-E-39" value="" style="endArrow=none;html=1;rounded=0;exitX=0.5;exitY=0;exitDx=0;exitDy=0;entryX=0.5;entryY=1;entryDx=0;entryDy=0;" edge="1" parent="1" source="MbKlLmu9MP12zDya-M-E-22" target="MbKlLmu9MP12zDya-M-E-27">
          <mxGeometry width="50" height="50" relative="1" as="geometry">
            <mxPoint x="645" y="339" as="sourcePoint" />
            <mxPoint x="675" y="319" as="targetPoint" />
          </mxGeometry>
        </mxCell>
        <mxCell id="MbKlLmu9MP12zDya-M-E-40" value="" style="endArrow=none;html=1;rounded=0;exitX=0.5;exitY=0;exitDx=0;exitDy=0;entryX=0.5;entryY=1;entryDx=0;entryDy=0;" edge="1" parent="1" source="MbKlLmu9MP12zDya-M-E-25" target="MbKlLmu9MP12zDya-M-E-27">
          <mxGeometry width="50" height="50" relative="1" as="geometry">
            <mxPoint x="655" y="349" as="sourcePoint" />
            <mxPoint x="685" y="329" as="targetPoint" />
          </mxGeometry>
        </mxCell>
        <mxCell id="MbKlLmu9MP12zDya-M-E-41" value="" style="endArrow=none;html=1;rounded=0;exitX=0.5;exitY=0;exitDx=0;exitDy=0;entryX=0.5;entryY=1;entryDx=0;entryDy=0;" edge="1" parent="1" source="MbKlLmu9MP12zDya-M-E-27" target="MbKlLmu9MP12zDya-M-E-28">
          <mxGeometry width="50" height="50" relative="1" as="geometry">
            <mxPoint x="665" y="359" as="sourcePoint" />
            <mxPoint x="695" y="339" as="targetPoint" />
          </mxGeometry>
        </mxCell>
        <mxCell id="MbKlLmu9MP12zDya-M-E-42" value="" style="endArrow=none;html=1;rounded=0;exitX=0.5;exitY=0;exitDx=0;exitDy=0;entryX=0.5;entryY=1;entryDx=0;entryDy=0;" edge="1" parent="1" source="MbKlLmu9MP12zDya-M-E-26" target="MbKlLmu9MP12zDya-M-E-28">
          <mxGeometry width="50" height="50" relative="1" as="geometry">
            <mxPoint x="675" y="369" as="sourcePoint" />
            <mxPoint x="705" y="349" as="targetPoint" />
          </mxGeometry>
        </mxCell>
        <mxCell id="MbKlLmu9MP12zDya-M-E-43" value="" style="endArrow=none;dashed=1;html=1;dashPattern=1 3;strokeWidth=2;rounded=0;exitX=0.5;exitY=0;exitDx=0;exitDy=0;" edge="1" parent="1" source="MbKlLmu9MP12zDya-M-E-12">
          <mxGeometry width="50" height="50" relative="1" as="geometry">
            <mxPoint x="199" y="140" as="sourcePoint" />
            <mxPoint x="214" y="130" as="targetPoint" />
          </mxGeometry>
        </mxCell>
        <mxCell id="MbKlLmu9MP12zDya-M-E-44" value="" style="endArrow=none;dashed=1;html=1;dashPattern=1 3;strokeWidth=2;rounded=0;entryX=0.5;entryY=1;entryDx=0;entryDy=0;" edge="1" parent="1" target="MbKlLmu9MP12zDya-M-E-18">
          <mxGeometry width="50" height="50" relative="1" as="geometry">
            <mxPoint x="94" y="400" as="sourcePoint" />
            <mxPoint x="93.5" y="370" as="targetPoint" />
          </mxGeometry>
        </mxCell>
        <mxCell id="MbKlLmu9MP12zDya-M-E-45" value="" style="endArrow=none;dashed=1;html=1;dashPattern=1 3;strokeWidth=2;rounded=0;entryX=0.5;entryY=1;entryDx=0;entryDy=0;" edge="1" parent="1" target="MbKlLmu9MP12zDya-M-E-13">
          <mxGeometry width="50" height="50" relative="1" as="geometry">
            <mxPoint x="154" y="400" as="sourcePoint" />
            <mxPoint x="104" y="380" as="targetPoint" />
          </mxGeometry>
        </mxCell>
        <mxCell id="MbKlLmu9MP12zDya-M-E-46" value="" style="endArrow=none;dashed=1;html=1;dashPattern=1 3;strokeWidth=2;rounded=0;entryX=0.5;entryY=1;entryDx=0;entryDy=0;" edge="1" parent="1" target="MbKlLmu9MP12zDya-M-E-14">
          <mxGeometry width="50" height="50" relative="1" as="geometry">
            <mxPoint x="214" y="400" as="sourcePoint" />
            <mxPoint x="164" y="380" as="targetPoint" />
          </mxGeometry>
        </mxCell>
        <mxCell id="MbKlLmu9MP12zDya-M-E-47" value="" style="endArrow=none;dashed=1;html=1;dashPattern=1 3;strokeWidth=2;rounded=0;entryX=0.5;entryY=1;entryDx=0;entryDy=0;" edge="1" parent="1" target="MbKlLmu9MP12zDya-M-E-19">
          <mxGeometry width="50" height="50" relative="1" as="geometry">
            <mxPoint x="274" y="400" as="sourcePoint" />
            <mxPoint x="224" y="380" as="targetPoint" />
          </mxGeometry>
        </mxCell>
        <mxCell id="MbKlLmu9MP12zDya-M-E-48" value="" style="endArrow=none;dashed=1;html=1;dashPattern=1 3;strokeWidth=2;rounded=0;entryX=0.5;entryY=1;entryDx=0;entryDy=0;" edge="1" parent="1" target="MbKlLmu9MP12zDya-M-E-20">
          <mxGeometry width="50" height="50" relative="1" as="geometry">
            <mxPoint x="334" y="400" as="sourcePoint" />
            <mxPoint x="284" y="380" as="targetPoint" />
          </mxGeometry>
        </mxCell>
        <mxCell id="MbKlLmu9MP12zDya-M-E-49" value="" style="endArrow=none;dashed=1;html=1;dashPattern=1 3;strokeWidth=2;rounded=0;entryX=0.5;entryY=0;entryDx=0;entryDy=0;" edge="1" parent="1" target="MbKlLmu9MP12zDya-M-E-28">
          <mxGeometry width="50" height="50" relative="1" as="geometry">
            <mxPoint x="565" y="79" as="sourcePoint" />
            <mxPoint x="285" y="359" as="targetPoint" />
          </mxGeometry>
        </mxCell>
        <mxCell id="MbKlLmu9MP12zDya-M-E-50" value="" style="endArrow=none;dashed=1;html=1;dashPattern=1 3;strokeWidth=2;rounded=0;entryX=0.5;entryY=1;entryDx=0;entryDy=0;" edge="1" parent="1" target="MbKlLmu9MP12zDya-M-E-18">
          <mxGeometry width="50" height="50" relative="1" as="geometry">
            <mxPoint x="109" y="400" as="sourcePoint" />
            <mxPoint x="104" y="380" as="targetPoint" />
          </mxGeometry>
        </mxCell>
        <mxCell id="MbKlLmu9MP12zDya-M-E-51" value="" style="endArrow=none;dashed=1;html=1;dashPattern=1 3;strokeWidth=2;rounded=0;entryX=0.5;entryY=1;entryDx=0;entryDy=0;" edge="1" parent="1" target="MbKlLmu9MP12zDya-M-E-18">
          <mxGeometry width="50" height="50" relative="1" as="geometry">
            <mxPoint x="79" y="400" as="sourcePoint" />
            <mxPoint x="114" y="390" as="targetPoint" />
          </mxGeometry>
        </mxCell>
        <mxCell id="MbKlLmu9MP12zDya-M-E-55" value="" style="endArrow=none;dashed=1;html=1;dashPattern=1 3;strokeWidth=2;rounded=0;entryX=0.5;entryY=1;entryDx=0;entryDy=0;" edge="1" parent="1" target="MbKlLmu9MP12zDya-M-E-13">
          <mxGeometry width="50" height="50" relative="1" as="geometry">
            <mxPoint x="169" y="400" as="sourcePoint" />
            <mxPoint x="104" y="380" as="targetPoint" />
          </mxGeometry>
        </mxCell>
        <mxCell id="MbKlLmu9MP12zDya-M-E-56" value="" style="endArrow=none;dashed=1;html=1;dashPattern=1 3;strokeWidth=2;rounded=0;entryX=0.5;entryY=1;entryDx=0;entryDy=0;" edge="1" parent="1" target="MbKlLmu9MP12zDya-M-E-14">
          <mxGeometry width="50" height="50" relative="1" as="geometry">
            <mxPoint x="229" y="400" as="sourcePoint" />
            <mxPoint x="164" y="380" as="targetPoint" />
          </mxGeometry>
        </mxCell>
        <mxCell id="MbKlLmu9MP12zDya-M-E-57" value="" style="endArrow=none;dashed=1;html=1;dashPattern=1 3;strokeWidth=2;rounded=0;entryX=0.5;entryY=1;entryDx=0;entryDy=0;" edge="1" parent="1" target="MbKlLmu9MP12zDya-M-E-19">
          <mxGeometry width="50" height="50" relative="1" as="geometry">
            <mxPoint x="289" y="400" as="sourcePoint" />
            <mxPoint x="224" y="380" as="targetPoint" />
          </mxGeometry>
        </mxCell>
        <mxCell id="MbKlLmu9MP12zDya-M-E-58" value="" style="endArrow=none;dashed=1;html=1;dashPattern=1 3;strokeWidth=2;rounded=0;entryX=0.5;entryY=1;entryDx=0;entryDy=0;" edge="1" parent="1" target="MbKlLmu9MP12zDya-M-E-20">
          <mxGeometry width="50" height="50" relative="1" as="geometry">
            <mxPoint x="349" y="400" as="sourcePoint" />
            <mxPoint x="284" y="380" as="targetPoint" />
          </mxGeometry>
        </mxCell>
        <mxCell id="MbKlLmu9MP12zDya-M-E-59" value="" style="endArrow=none;dashed=1;html=1;dashPattern=1 3;strokeWidth=2;rounded=0;entryX=0.5;entryY=1;entryDx=0;entryDy=0;" edge="1" parent="1" target="MbKlLmu9MP12zDya-M-E-20">
          <mxGeometry width="50" height="50" relative="1" as="geometry">
            <mxPoint x="319" y="400" as="sourcePoint" />
            <mxPoint x="344" y="380" as="targetPoint" />
          </mxGeometry>
        </mxCell>
        <mxCell id="MbKlLmu9MP12zDya-M-E-60" value="" style="endArrow=none;dashed=1;html=1;dashPattern=1 3;strokeWidth=2;rounded=0;entryX=0.5;entryY=1;entryDx=0;entryDy=0;" edge="1" parent="1" target="MbKlLmu9MP12zDya-M-E-19">
          <mxGeometry width="50" height="50" relative="1" as="geometry">
            <mxPoint x="259" y="400" as="sourcePoint" />
            <mxPoint x="269" y="370" as="targetPoint" />
          </mxGeometry>
        </mxCell>
        <mxCell id="MbKlLmu9MP12zDya-M-E-61" value="" style="endArrow=none;dashed=1;html=1;dashPattern=1 3;strokeWidth=2;rounded=0;entryX=0.5;entryY=1;entryDx=0;entryDy=0;" edge="1" parent="1" target="MbKlLmu9MP12zDya-M-E-14">
          <mxGeometry width="50" height="50" relative="1" as="geometry">
            <mxPoint x="199" y="400" as="sourcePoint" />
            <mxPoint x="284" y="380" as="targetPoint" />
          </mxGeometry>
        </mxCell>
        <mxCell id="MbKlLmu9MP12zDya-M-E-62" value="" style="endArrow=none;dashed=1;html=1;dashPattern=1 3;strokeWidth=2;rounded=0;entryX=0.5;entryY=1;entryDx=0;entryDy=0;" edge="1" parent="1" target="MbKlLmu9MP12zDya-M-E-13">
          <mxGeometry width="50" height="50" relative="1" as="geometry">
            <mxPoint x="139" y="400" as="sourcePoint" />
            <mxPoint x="224" y="380" as="targetPoint" />
          </mxGeometry>
        </mxCell>
        <mxCell id="MbKlLmu9MP12zDya-M-E-64" value="" style="endArrow=none;dashed=1;html=1;dashPattern=1 3;strokeWidth=2;rounded=0;entryX=0.5;entryY=1;entryDx=0;entryDy=0;" edge="1" parent="1">
          <mxGeometry width="50" height="50" relative="1" as="geometry">
            <mxPoint x="460" y="400" as="sourcePoint" />
            <mxPoint x="445" y="370" as="targetPoint" />
          </mxGeometry>
        </mxCell>
        <mxCell id="MbKlLmu9MP12zDya-M-E-65" value="" style="endArrow=none;dashed=1;html=1;dashPattern=1 3;strokeWidth=2;rounded=0;entryX=0.5;entryY=1;entryDx=0;entryDy=0;" edge="1" parent="1">
          <mxGeometry width="50" height="50" relative="1" as="geometry">
            <mxPoint x="430" y="400" as="sourcePoint" />
            <mxPoint x="445" y="370" as="targetPoint" />
          </mxGeometry>
        </mxCell>
        <mxCell id="MbKlLmu9MP12zDya-M-E-66" value="" style="endArrow=none;dashed=1;html=1;dashPattern=1 3;strokeWidth=2;rounded=0;entryX=0.5;entryY=1;entryDx=0;entryDy=0;" edge="1" parent="1">
          <mxGeometry width="50" height="50" relative="1" as="geometry">
            <mxPoint x="521" y="401" as="sourcePoint" />
            <mxPoint x="506" y="371" as="targetPoint" />
          </mxGeometry>
        </mxCell>
        <mxCell id="MbKlLmu9MP12zDya-M-E-67" value="" style="endArrow=none;dashed=1;html=1;dashPattern=1 3;strokeWidth=2;rounded=0;entryX=0.5;entryY=1;entryDx=0;entryDy=0;" edge="1" parent="1">
          <mxGeometry width="50" height="50" relative="1" as="geometry">
            <mxPoint x="491" y="401" as="sourcePoint" />
            <mxPoint x="506" y="371" as="targetPoint" />
          </mxGeometry>
        </mxCell>
        <mxCell id="MbKlLmu9MP12zDya-M-E-68" value="" style="endArrow=none;dashed=1;html=1;dashPattern=1 3;strokeWidth=2;rounded=0;entryX=0.5;entryY=1;entryDx=0;entryDy=0;" edge="1" parent="1">
          <mxGeometry width="50" height="50" relative="1" as="geometry">
            <mxPoint x="580" y="400" as="sourcePoint" />
            <mxPoint x="565" y="370" as="targetPoint" />
          </mxGeometry>
        </mxCell>
        <mxCell id="MbKlLmu9MP12zDya-M-E-69" value="" style="endArrow=none;dashed=1;html=1;dashPattern=1 3;strokeWidth=2;rounded=0;entryX=0.5;entryY=1;entryDx=0;entryDy=0;" edge="1" parent="1">
          <mxGeometry width="50" height="50" relative="1" as="geometry">
            <mxPoint x="550" y="400" as="sourcePoint" />
            <mxPoint x="565" y="370" as="targetPoint" />
          </mxGeometry>
        </mxCell>
        <mxCell id="MbKlLmu9MP12zDya-M-E-70" value="" style="endArrow=none;dashed=1;html=1;dashPattern=1 3;strokeWidth=2;rounded=0;entryX=0.5;entryY=1;entryDx=0;entryDy=0;" edge="1" parent="1">
          <mxGeometry width="50" height="50" relative="1" as="geometry">
            <mxPoint x="641" y="401" as="sourcePoint" />
            <mxPoint x="626" y="371" as="targetPoint" />
          </mxGeometry>
        </mxCell>
        <mxCell id="MbKlLmu9MP12zDya-M-E-71" value="" style="endArrow=none;dashed=1;html=1;dashPattern=1 3;strokeWidth=2;rounded=0;entryX=0.5;entryY=1;entryDx=0;entryDy=0;" edge="1" parent="1">
          <mxGeometry width="50" height="50" relative="1" as="geometry">
            <mxPoint x="611" y="401" as="sourcePoint" />
            <mxPoint x="626" y="371" as="targetPoint" />
          </mxGeometry>
        </mxCell>
        <mxCell id="MbKlLmu9MP12zDya-M-E-72" value="" style="endArrow=none;dashed=1;html=1;dashPattern=1 3;strokeWidth=2;rounded=0;entryX=0.5;entryY=1;entryDx=0;entryDy=0;" edge="1" parent="1">
          <mxGeometry width="50" height="50" relative="1" as="geometry">
            <mxPoint x="702" y="401" as="sourcePoint" />
            <mxPoint x="687" y="371" as="targetPoint" />
          </mxGeometry>
        </mxCell>
        <mxCell id="MbKlLmu9MP12zDya-M-E-73" value="" style="endArrow=none;dashed=1;html=1;dashPattern=1 3;strokeWidth=2;rounded=0;entryX=0.5;entryY=1;entryDx=0;entryDy=0;" edge="1" parent="1">
          <mxGeometry width="50" height="50" relative="1" as="geometry">
            <mxPoint x="672" y="401" as="sourcePoint" />
            <mxPoint x="687" y="371" as="targetPoint" />
          </mxGeometry>
        </mxCell>
        <mxCell id="MbKlLmu9MP12zDya-M-E-77" value="" style="endArrow=block;html=1;rounded=0;exitX=1;exitY=0;exitDx=0;exitDy=0;entryX=0;entryY=0.5;entryDx=0;entryDy=0;curved=1;strokeColor=#FF6666;startArrow=none;startFill=0;endFill=1;dashed=1;" edge="1" parent="1" source="MbKlLmu9MP12zDya-M-E-12" target="MbKlLmu9MP12zDya-M-E-28">
          <mxGeometry width="50" height="50" relative="1" as="geometry">
            <mxPoint x="310" y="220" as="sourcePoint" />
            <mxPoint x="360" y="170" as="targetPoint" />
            <Array as="points">
              <mxPoint x="380" y="130" />
            </Array>
          </mxGeometry>
        </mxCell>
        <mxCell id="MbKlLmu9MP12zDya-M-E-81" value="" style="endArrow=block;html=1;rounded=0;exitX=1;exitY=0;exitDx=0;exitDy=0;curved=1;strokeColor=#FF6666;startArrow=none;startFill=0;endFill=1;dashed=1;entryX=0;entryY=0;entryDx=0;entryDy=0;" edge="1" parent="1" source="MbKlLmu9MP12zDya-M-E-18" target="MbKlLmu9MP12zDya-M-E-1">
          <mxGeometry width="50" height="50" relative="1" as="geometry">
            <mxPoint x="242" y="207" as="sourcePoint" />
            <mxPoint x="420" y="310" as="targetPoint" />
            <Array as="points">
              <mxPoint x="270" y="220" />
            </Array>
          </mxGeometry>
        </mxCell>
        <mxCell id="MbKlLmu9MP12zDya-M-E-82" value="" style="endArrow=block;html=1;rounded=0;exitX=1;exitY=0;exitDx=0;exitDy=0;curved=1;strokeColor=#FF6666;startArrow=none;startFill=0;endFill=1;dashed=1;entryX=0;entryY=0;entryDx=0;entryDy=0;" edge="1" parent="1" source="MbKlLmu9MP12zDya-M-E-13" target="MbKlLmu9MP12zDya-M-E-21">
          <mxGeometry width="50" height="50" relative="1" as="geometry">
            <mxPoint x="176.5" y="327.5" as="sourcePoint" />
            <mxPoint x="491.5" y="326.5" as="targetPoint" />
            <Array as="points">
              <mxPoint x="334.5" y="220.5" />
            </Array>
          </mxGeometry>
        </mxCell>
        <mxCell id="MbKlLmu9MP12zDya-M-E-83" value="" style="endArrow=block;html=1;rounded=0;exitX=1;exitY=0;exitDx=0;exitDy=0;curved=1;strokeColor=#FF6666;startArrow=none;startFill=0;endFill=1;dashed=1;entryX=0;entryY=0;entryDx=0;entryDy=0;" edge="1" parent="1" source="MbKlLmu9MP12zDya-M-E-14" target="MbKlLmu9MP12zDya-M-E-22">
          <mxGeometry width="50" height="50" relative="1" as="geometry">
            <mxPoint x="235" y="327.25" as="sourcePoint" />
            <mxPoint x="550" y="326.25" as="targetPoint" />
            <Array as="points">
              <mxPoint x="397.5" y="220.75" />
            </Array>
          </mxGeometry>
        </mxCell>
        <mxCell id="MbKlLmu9MP12zDya-M-E-84" value="" style="endArrow=block;html=1;rounded=0;exitX=1;exitY=0;exitDx=0;exitDy=0;curved=1;strokeColor=#FF6666;startArrow=none;startFill=0;endFill=1;dashed=1;entryX=0;entryY=0;entryDx=0;entryDy=0;" edge="1" parent="1" source="MbKlLmu9MP12zDya-M-E-19" target="MbKlLmu9MP12zDya-M-E-23">
          <mxGeometry width="50" height="50" relative="1" as="geometry">
            <mxPoint x="290" y="327.13" as="sourcePoint" />
            <mxPoint x="605" y="326.13" as="targetPoint" />
            <Array as="points">
              <mxPoint x="455.5" y="220.88" />
            </Array>
          </mxGeometry>
        </mxCell>
        <mxCell id="MbKlLmu9MP12zDya-M-E-85" value="" style="endArrow=block;html=1;rounded=0;exitX=1;exitY=0;exitDx=0;exitDy=0;curved=1;strokeColor=#FF6666;startArrow=none;startFill=0;endFill=1;dashed=1;entryX=0;entryY=0;entryDx=0;entryDy=0;" edge="1" parent="1" source="MbKlLmu9MP12zDya-M-E-20" target="MbKlLmu9MP12zDya-M-E-24">
          <mxGeometry width="50" height="50" relative="1" as="geometry">
            <mxPoint x="350" y="327.06" as="sourcePoint" />
            <mxPoint x="665" y="326.06" as="targetPoint" />
            <Array as="points">
              <mxPoint x="513.5" y="220.94" />
            </Array>
          </mxGeometry>
        </mxCell>
      </root>
    </mxGraphModel>
  </diagram>
</mxfile>
